<svg xmlns="http://www.w3.org/2000/svg" width="16" height="16" viewBox="0 0 16 16">
  <title>bell-ko</title>
  <path d="M8,16a2.53,2.53,0,0,0,2.53-2.53H5.47A2.53,2.53,0,0,0,8,16Z" fill="#eaeaea"/>
  <path d="M7.77,0a1.7,1.7,0,0,0-1.4,1.4c-2.44.93-4.2,3.9-4.2,7.36a7.53,7.53,0,0,0-1.73,4.7H8V0Z" fill="#eaeaea"/>
  <path d="M8.23,0a1.7,1.7,0,0,1,1.4,1.4c2.44.93,4.2,3.9,4.2,7.36a7.53,7.53,0,0,1,1.73,4.7H8V0Z" fill="#fff"/>
  <path d="M5.67,14.46h4.66a2.5,2.5,0,0,0,.2-1H5.47A2.5,2.5,0,0,0,5.67,14.46Z" fill="#999"/>
</svg>
