<svg xmlns="http://www.w3.org/2000/svg" width="156" height="30" viewBox="0 0 156 30">
  <title>reflectivity-logo</title>
  <path d="M34.13,10.31c.45,0,2.71-.19,2.71-2.45,0-.6,0-2.39-2.79-2.39H29.19v4.84Zm6,11.5H36.66a4.92,4.92,0,0,1-.37-2V15.69c0-1.55-.74-2.26-2.37-2.26H29.19v8.38H25.72V2.24h8.33c3.81,0,6.26,2,6.26,5.44a4.25,4.25,0,0,1-2.55,4.15,4,4,0,0,1,2,3.89V19.6a7.29,7.29,0,0,0,.42,2.21" fill="#ff173d"/>
  <path d="M51.36,13.56A3.39,3.39,0,0,0,48,11a3.46,3.46,0,0,0-3.33,2.58ZM44.58,16.4A3.45,3.45,0,0,0,48,19.08a3.15,3.15,0,0,0,2.87-1.58h3.7A6.41,6.41,0,0,1,48,22.13,7.1,7.1,0,0,1,48,7.94c4,0,7.31,3.1,6.81,8.46Z" fill="#ff173d"/>
  <rect x="65.18" y="2.26" width="3.47" height="19.55" fill="#ff173d"/>
  <path d="M63.29,8.3v3.32H60.84V21.81H57.37V11.62H55.74V8.3h1.63c.06-3.52,2.21-6.09,6.05-5.65v3.1c-1.71-.1-2.55.69-2.58,2.55Z" fill="#ff173d"/>
  <path d="M80.6,13.56A3.4,3.4,0,0,0,77.21,11a3.46,3.46,0,0,0-3.34,2.58ZM73.82,16.4a3.44,3.44,0,0,0,3.39,2.68,3.14,3.14,0,0,0,2.86-1.58h3.71a6.42,6.42,0,0,1-6.55,4.63,7.1,7.1,0,0,1,0-14.19c4,0,7.31,3.1,6.81,8.46Z" fill="#ff173d"/>
  <path d="M92.41,22.13a6.9,6.9,0,0,1-7-7.07,6.93,6.93,0,0,1,7-7.12,6.38,6.38,0,0,1,6.52,4.88h-3.7a3.24,3.24,0,0,0-2.82-1.7,3.74,3.74,0,0,0-3.46,4A3.71,3.71,0,0,0,92.41,19a3.17,3.17,0,0,0,2.84-1.73H99a6.37,6.37,0,0,1-6.55,4.89" fill="#ff173d"/>
  <rect x="108.63" y="8.28" width="3.47" height="13.53" fill="#ff173d"/>
  <rect x="108.63" y="2.24" width="3.47" height="3.23" fill="#ff173d"/>
  <polygon points="122.63 21.81 118.9 21.81 113.78 8.28 117.41 8.28 120.77 18.37 124.16 8.28 127.73 8.28 122.63 21.81" fill="#ff173d"/>
  <rect x="128.89" y="8.28" width="3.47" height="13.53" fill="#ff173d"/>
  <rect x="128.89" y="2.24" width="3.47" height="3.23" fill="#ff173d"/>
  <polygon points="152.18 8.28 148.83 17.73 145.63 8.28 141.95 8.28 147.25 22.22 144 30 147.84 30 155.88 8.28 152.18 8.28" fill="#ff173d"/>
  <polygon points="141.24 8.28 138.74 8.28 138.74 2.24 135.27 2.24 135.27 8.28 133.7 8.28 133.7 11.35 135.27 11.35 135.27 21.81 138.74 21.81 138.74 11.35 141.24 11.35 141.24 8.28" fill="#ff173d"/>
  <polygon points="107.21 8.28 105.64 8.28 105.64 2.24 102.17 2.24 102.17 8.28 99.67 8.28 99.67 11.35 102.17 11.35 102.17 21.81 105.64 21.81 105.64 11.35 107.21 11.35 107.21 8.28" fill="#ff173d"/>
  <g>
    <path d="M7.29,21.81h7.29l0-7.27A7.27,7.27,0,0,0,7.29,21.81ZM14.56,0A7.26,7.26,0,0,0,7.29,7.27h0a7.26,7.26,0,0,0,7.27,7.27l0-7.27h0Z" fill="#ff173d"/>
    <path d="M6,21.81h.38L7.24,21c0-.11,0-.22,0-.33Zm.76-2.62L4.19,21.81h.37L6.9,19.47A2.31,2.31,0,0,0,6.8,19.19ZM6.18,18,2.33,21.81H2.7l3.62-3.62C6.28,18.11,6.23,18,6.18,18Zm-.8-1.05L.47,21.81H.85L5.56,17.1Zm-1-.89L0,20.42v.38l4.62-4.62ZM0,18.93l3.5-3.5-.25-.13L0,18.56Zm2.2-4.06-.29-.08L0,16.7v.37ZM.31,0,0,.3V.68L.66,0Zm4.1,1.47L0,5.89v.38L4.62,1.65ZM3.26.77,0,4V4.4L3.51.9ZM1.92.26,0,2.16v.38L2.21.34ZM0,15.21l.64-.7L0,13.87v.38l.29.29L0,14.83Zm6.4-7.94h0l.82-.82c0-.11,0-.22,0-.33L6,7.27H6L7.2,8.43c0-.11,0-.22,0-.33l-.82-.83Zm-2.23,0h0L6.8,9.89a2.31,2.31,0,0,0,.1-.28L4.56,7.27,6.9,4.93c0-.09-.06-.18-.1-.27L4.19,7.27Zm-1.86,0h0l3.85,3.86c.05-.08.1-.16.14-.24L2.7,7.27h0L6.32,3.66c0-.08-.09-.16-.14-.24L2.33,7.27Zm-1.86,0h0l4.91,4.91.18-.2L.85,7.27l4.71-4.7-.18-.2L.47,7.27Zm3.94,5.8.21-.17L0,8.28v.38ZM0,10.15v.37l3.25,3.26.25-.13Zm2.2,4.06L0,12v.38l1.91,1.9Z" fill="#ff173d"/>
  </g>
</svg>
