<svg xmlns="http://www.w3.org/2000/svg" width="22" height="32" viewBox="0 0 22 32">
  <title>reflectivity-logo</title>
  <g>
    <path d="M10.69,32h10.7l0-10.67A10.67,10.67,0,0,0,10.69,32ZM21.36,0A10.67,10.67,0,0,0,10.69,10.67h0A10.67,10.67,0,0,0,21.36,21.33l0-10.66h0Z" fill="#fff"/>
    <path d="M8.87,32h.55l1.21-1.21c0-.16,0-.32-.07-.48ZM10,28.15,6.14,32h.55l3.44-3.43Zm-.91-1.81L3.42,32H4l5.31-5.31ZM7.9,24.79.69,32h.55l6.91-6.91Zm-1.43-1.3L0,30v.55l6.78-6.78ZM0,27.78l5.14-5.15-.36-.18L0,27.22Zm3.23-6-.42-.13L0,24.49V25ZM.45,0,0,.43V1L1,0Zm6,2.16L0,8.63v.56L6.78,2.41Zm-1.68-1L0,5.9v.55L5.15,1.31Zm-2-.75L0,3.17v.55L3.24.49ZM0,22.31l.94-1L0,20.35v.55l.42.42L0,21.76ZM9.42,10.67h0l1.21-1.21c0-.16,0-.32-.07-.49l-1.69,1.7h0l1.69,1.69c0-.16,0-.32.07-.49l-1.21-1.2Zm-3.28,0h0L10,14.5l.15-.4L6.69,10.67l3.44-3.44L10,6.83,6.14,10.67Zm-2.72,0h0l5.65,5.65L9.28,16,4,10.67H4L9.28,5.36,9.07,5,3.42,10.67Zm-2.73,0h0l7.21,7.2.25-.29L1.24,10.67,8.15,3.76l-.25-.3L.69,10.67Zm5.78,8.5.31-.24L0,12.15v.55ZM0,14.88v.55l4.78,4.78L5.15,20Zm3.23,6L0,17.61v.56L2.82,21Z" fill="#fff"/>
  </g>
</svg>
